<svg width="226" height="226" viewBox="0 0 226 226" fill="none" xmlns="http://www.w3.org/2000/svg">
<g clip-path="url(#clip0_59_1787)">
<path d="M94.1431 118.774L58.8306 151.35C58.6531 151.514 58.5114 151.714 58.4142 151.936C58.317 152.157 58.2664 152.397 58.2656 152.639V178.329C58.2656 178.797 58.4516 179.246 58.7828 179.577C59.1139 179.908 59.563 180.094 60.0312 180.094C60.4995 180.094 60.9486 179.908 61.2797 179.577C61.6109 179.246 61.7969 178.797 61.7969 178.329V153.398L96.5444 121.352C96.8886 121.033 97.0921 120.591 97.1104 120.123C97.1286 119.654 96.9599 119.198 96.6415 118.853C96.3231 118.509 95.881 118.306 95.4124 118.287C94.9439 118.269 94.4873 118.438 94.1431 118.756V118.774Z" fill="#03023E"/>
<path d="M60.0312 187.156C61.0064 187.156 61.7969 186.366 61.7969 185.391C61.7969 184.415 61.0064 183.625 60.0312 183.625C59.0561 183.625 58.2656 184.415 58.2656 185.391C58.2656 186.366 59.0561 187.156 60.0312 187.156Z" fill="#03023E"/>
<path d="M164.203 152.639C164.202 152.397 164.152 152.157 164.055 151.935C163.957 151.714 163.816 151.514 163.638 151.35L128.326 118.774C128.155 118.616 127.955 118.494 127.738 118.413C127.52 118.333 127.288 118.296 127.056 118.305C126.824 118.314 126.596 118.369 126.386 118.466C126.175 118.563 125.985 118.701 125.827 118.871C125.67 119.041 125.547 119.241 125.467 119.459C125.386 119.677 125.349 119.908 125.358 120.14C125.367 120.372 125.422 120.6 125.519 120.811C125.616 121.022 125.754 121.212 125.924 121.369L160.672 153.398V178.328C160.672 178.797 160.858 179.246 161.189 179.577C161.52 179.908 161.969 180.094 162.438 180.094C162.906 180.094 163.355 179.908 163.686 179.577C164.017 179.246 164.203 178.797 164.203 178.328V152.639Z" fill="#03023E"/>
<path d="M162.438 187.156C163.413 187.156 164.203 186.366 164.203 185.391C164.203 184.415 163.413 183.625 162.438 183.625C161.462 183.625 160.672 184.415 160.672 185.391C160.672 186.366 161.462 187.156 162.438 187.156Z" fill="#03023E"/>
<path d="M39.1792 183.625C40.0974 185.055 40.9449 185.762 41.6688 185.762C42.3927 185.762 43.1342 184.614 43.1342 182.425V150.078C43.1468 149.193 43.5086 148.349 44.1406 147.73L109.169 84.9091C109.807 84.2952 110.658 83.9523 111.543 83.9523C112.429 83.9523 113.28 84.2952 113.918 84.9091L179.07 147.73C179.387 148.035 179.64 148.399 179.816 148.802C179.992 149.205 180.086 149.639 180.094 150.078V183.714C180.094 185.938 180.694 187.086 181.595 187.086C182.495 187.086 183.166 186.415 184.119 185.02C202.605 157.865 219.432 116.161 220.703 53.5516C220.715 51.8111 220.083 50.1277 218.93 48.8242C217.776 47.5208 216.182 46.6893 214.453 46.4891C213.817 46.4009 149.866 37.0607 118.562 2.34852C117.886 1.61199 117.069 1.01961 116.159 0.606967C115.248 0.194323 114.264 -0.0300707 113.265 -0.0527344H113C112.012 -0.0515676 111.034 0.147448 110.125 0.532569C109.215 0.917691 108.392 1.48112 107.703 2.18961C107.368 2.5957 67.0938 42.9932 16.9324 42.9932C15.6376 42.9932 14.3369 42.9932 13.0303 42.9932H12.6595C10.8243 42.9756 9.05196 43.6609 7.70591 44.9085C6.35986 46.156 5.54214 47.8713 5.42048 49.7026C4.80181 76.5239 8.1091 103.292 15.2374 129.156C20.4265 148.415 28.4984 166.779 39.1792 183.625ZM197.75 61.7971C198.099 61.7971 198.441 61.9007 198.731 62.0947C199.021 62.2887 199.248 62.5644 199.381 62.8871C199.515 63.2097 199.55 63.5647 199.482 63.9072C199.414 64.2497 199.245 64.5643 198.998 64.8112C198.752 65.0581 198.437 65.2263 198.094 65.2944C197.752 65.3626 197.397 65.3276 197.074 65.194C196.752 65.0603 196.476 64.834 196.282 64.5437C196.088 64.2533 195.984 63.9119 195.984 63.5627C195.984 63.0945 196.17 62.6454 196.502 62.3142C196.833 61.9831 197.282 61.7971 197.75 61.7971ZM125.783 34.1651C125.933 33.9876 126.116 33.8413 126.322 33.7346C126.528 33.6278 126.753 33.5628 126.984 33.5431C127.215 33.5234 127.448 33.5495 127.669 33.6199C127.89 33.6902 128.095 33.8035 128.273 33.9532C128.555 34.1827 156.523 57.5596 190.917 61.7971C191.385 61.8252 191.823 62.0382 192.135 62.3892C192.446 62.7401 192.605 63.2004 192.577 63.6687C192.549 64.1369 192.336 64.5749 191.985 64.8861C191.634 65.1974 191.173 65.3565 190.705 65.3284H190.493C155.04 60.9319 127.125 37.6434 125.977 36.6546C125.801 36.5039 125.656 36.32 125.551 36.1133C125.446 35.9066 125.383 35.6813 125.365 35.4501C125.347 35.2189 125.374 34.9864 125.446 34.7659C125.518 34.5455 125.632 34.3413 125.783 34.1651ZM35.1006 61.7971C69.4597 57.5596 97.4625 34.2004 97.7273 33.9709C98.0856 33.6688 98.5491 33.5215 99.016 33.5612C99.4829 33.6009 99.9148 33.8245 100.217 34.1827C100.519 34.541 100.666 35.0045 100.627 35.4714C100.587 35.9383 100.363 36.3702 100.005 36.6723C98.875 37.6434 70.9605 60.9319 35.5244 65.3284H35.3125C34.8442 65.3565 34.384 65.1974 34.033 64.8861C33.682 64.5749 33.469 64.1369 33.4409 63.6687C33.4128 63.2004 33.5719 62.7401 33.8832 62.3892C34.1944 62.0382 34.6324 61.8252 35.1006 61.7971ZM28.25 61.7971C28.5992 61.7971 28.9406 61.9007 29.2309 62.0947C29.5213 62.2887 29.7476 62.5644 29.8812 62.8871C30.0149 63.2097 30.0498 63.5647 29.9817 63.9072C29.9136 64.2497 29.7454 64.5643 29.4985 64.8112C29.2516 65.0581 28.937 65.2263 28.5945 65.2944C28.252 65.3626 27.897 65.3276 27.5743 65.194C27.2517 65.0603 26.976 64.834 26.7819 64.5437C26.5879 64.2533 26.4844 63.9119 26.4844 63.5627C26.4844 63.0945 26.6704 62.6454 27.0015 62.3142C27.3326 61.9831 27.7817 61.7971 28.25 61.7971Z" fill="#03023E"/>
<path d="M93.5781 155.375C93.5785 159.364 94.8074 163.257 97.0977 166.523C99.3879 169.789 102.629 172.271 106.379 173.631V219.078C106.355 219.969 106.508 220.855 106.829 221.685C107.15 222.516 107.632 223.275 108.248 223.919C108.863 224.562 109.6 225.077 110.416 225.434C111.231 225.792 112.11 225.984 113 226C114.357 225.977 115.674 225.536 116.771 224.736C117.867 223.937 118.69 222.818 119.127 221.533H121.087C122.837 221.408 124.475 220.624 125.67 219.34C126.866 218.056 127.531 216.366 127.531 214.611C127.531 212.857 126.866 211.167 125.67 209.883C124.475 208.599 122.837 207.815 121.087 207.69H119.55V205.766H121.087C122.837 205.641 124.475 204.857 125.67 203.573C126.866 202.289 127.531 200.599 127.531 198.844C127.531 197.09 126.866 195.4 125.67 194.116C124.475 192.832 122.837 192.048 121.087 191.923H119.55V173.684C122.898 172.485 125.852 170.389 128.091 167.626C130.329 164.863 131.766 161.538 132.245 158.015C132.724 154.491 132.226 150.903 130.805 147.643C129.385 144.383 127.097 141.575 124.19 139.526C121.284 137.478 117.871 136.266 114.323 136.024C110.775 135.781 107.229 136.518 104.071 138.153C100.913 139.788 98.2643 142.258 96.414 145.295C94.5638 148.332 93.5828 151.819 93.5781 155.375ZM120.945 154.492C120.945 156.063 120.479 157.6 119.606 158.906C118.733 160.213 117.492 161.231 116.041 161.832C114.589 162.434 112.991 162.591 111.45 162.285C109.909 161.978 108.493 161.221 107.382 160.11C106.271 158.999 105.514 157.583 105.207 156.042C104.901 154.501 105.058 152.903 105.659 151.451C106.261 150 107.279 148.759 108.586 147.886C109.892 147.013 111.429 146.547 113 146.547C115.107 146.547 117.128 147.384 118.618 148.874C120.108 150.364 120.945 152.385 120.945 154.492Z" fill="#03023E"/>
<path d="M113 158.906C115.438 158.906 117.414 156.93 117.414 154.492C117.414 152.054 115.438 150.078 113 150.078C110.562 150.078 108.586 152.054 108.586 154.492C108.586 156.93 110.562 158.906 113 158.906Z" fill="#03023E"/>
</g>
<defs>
<clipPath id="clip0_59_1787">
<rect width="226" height="226" fill="white"/>
</clipPath>
</defs>
</svg>
