<svg width="205" height="205" viewBox="0 0 205 205" fill="none" xmlns="http://www.w3.org/2000/svg">
<g clip-path="url(#clip0_59_1682)">
<path d="M197.679 146.428C196.717 146.428 195.765 146.617 194.877 146.985C193.989 147.353 193.181 147.892 192.502 148.572C191.822 149.252 191.282 150.059 190.914 150.947C190.547 151.836 190.357 152.788 190.357 153.749V183.035C190.357 184.978 189.586 186.837 188.212 188.211C186.838 189.586 184.979 190.356 183.036 190.356H153.75C152.789 190.356 151.836 190.546 150.948 190.914C150.06 191.282 149.253 191.821 148.573 192.501C147.893 193.181 147.354 193.988 146.986 194.876C146.618 195.764 146.429 196.716 146.429 197.678C146.429 198.639 146.618 199.591 146.986 200.48C147.354 201.368 147.893 202.175 148.573 202.855C149.253 203.535 150.06 204.074 150.948 204.442C151.836 204.81 152.789 204.999 153.75 204.999H183.036C188.859 204.999 194.448 202.681 198.565 198.564C202.682 194.447 205 188.858 205 183.035V153.749C205 152.788 204.811 151.836 204.443 150.947C204.075 150.059 203.535 149.252 202.856 148.572C202.176 147.892 201.369 147.353 200.48 146.985C199.592 146.617 198.64 146.428 197.679 146.428Z" fill="#03023E"/>
<path d="M153.75 0C152.789 -9.80691e-07 151.836 0.189373 150.948 0.557309C150.06 0.925245 149.253 1.46454 148.573 2.14439C147.893 2.82425 147.354 3.63136 146.986 4.51964C146.618 5.40792 146.429 6.35996 146.429 7.32143C146.429 8.28289 146.618 9.23494 146.986 10.1232C147.354 11.0115 147.893 11.8186 148.573 12.4985C149.253 13.1783 150.06 13.7176 150.948 14.0855C151.836 14.4535 152.789 14.6429 153.75 14.6429H183.036C184.98 14.6429 186.838 15.4138 188.212 16.7878C189.587 18.1633 190.357 20.0204 190.357 21.9643V51.25C190.357 52.2115 190.547 53.1635 190.914 54.0518C191.282 54.9401 191.822 55.7472 192.502 56.427C193.181 57.1069 193.989 57.6462 194.877 58.0141C195.765 58.3821 196.717 58.5714 197.679 58.5714C198.64 58.5714 199.592 58.3821 200.48 58.0141C201.369 57.6462 202.176 57.1069 202.856 56.427C203.535 55.7472 204.075 54.9401 204.443 54.0518C204.811 53.1635 205 52.2115 205 51.25V21.9643C205 16.141 202.681 10.5515 198.565 6.43485C194.448 2.31674 188.858 0 183.036 0L153.75 0Z" fill="#03023E"/>
<path d="M21.9643 0C16.1418 0 10.5519 2.3178 6.43485 6.43485C2.3178 10.5519 0 16.1418 0 21.9643V51.25C-9.80691e-07 52.2115 0.189373 53.1635 0.557309 54.0518C0.925245 54.9401 1.46454 55.7472 2.14439 56.427C2.82425 57.1069 3.63136 57.6462 4.51964 58.0141C5.40792 58.3821 6.35996 58.5714 7.32143 58.5714C8.28289 58.5714 9.23494 58.3821 10.1232 58.0141C11.0115 57.6462 11.8186 57.1069 12.4985 56.427C13.1783 55.7472 13.7176 54.9401 14.0855 54.0518C14.4535 53.1635 14.6429 52.2115 14.6429 51.25V21.9643C14.6429 20.0196 15.4127 18.1629 16.7878 16.7878C18.1629 15.4127 20.0196 14.6429 21.9643 14.6429H51.25C52.2115 14.6429 53.1635 14.4535 54.0518 14.0855C54.9401 13.7176 55.7472 13.1783 56.427 12.4985C57.1069 11.8186 57.6462 11.0115 58.0141 10.1232C58.3821 9.23494 58.5714 8.28289 58.5714 7.32143C58.5714 6.35996 58.3821 5.40792 58.0141 4.51964C57.6462 3.63136 57.1069 2.82425 56.427 2.14439C55.7472 1.46454 54.9401 0.925245 54.0518 0.557309C53.1635 0.189373 52.2115 -9.80691e-07 51.25 0L21.9643 0Z" fill="#03023E"/>
<path d="M7.32143 146.428C6.35996 146.428 5.40792 146.617 4.51964 146.985C3.63136 147.353 2.82425 147.892 2.14439 148.572C1.46454 149.252 0.925245 150.059 0.557309 150.947C0.189373 151.836 -9.80691e-07 152.788 0 153.749L0 183.035C0 188.857 2.31674 194.447 6.43485 198.564C10.5515 202.68 16.141 204.999 21.9643 204.999H51.25C52.2115 204.999 53.1635 204.81 54.0518 204.442C54.9401 204.074 55.7472 203.535 56.427 202.855C57.1069 202.175 57.6462 201.368 58.0141 200.48C58.3821 199.591 58.5714 198.639 58.5714 197.678C58.5714 196.716 58.3821 195.764 58.0141 194.876C57.6462 193.988 57.1069 193.181 56.427 192.501C55.7472 191.821 54.9401 191.282 54.0518 190.914C53.1635 190.546 52.2115 190.356 51.25 190.356H21.9643C20.0204 190.356 18.1633 189.587 16.7878 188.211C15.4138 186.838 14.6429 184.979 14.6429 183.035V153.749C14.6429 152.788 14.4535 151.836 14.0855 150.947C13.7176 150.059 13.1783 149.252 12.4985 148.572C11.8186 147.892 11.0115 147.353 10.1232 146.985C9.23494 146.617 8.28289 146.428 7.32143 146.428Z" fill="#03023E"/>
<path d="M109.379 130.012C119.397 116.609 123.177 102.181 120.615 87.1284C119.168 78.6329 114.112 72.6306 107.422 71.4635C100.605 70.274 93.6367 74.3788 89.2361 82.1701C85.7274 88.3705 83.0638 96.6041 80.2435 105.321C75.5688 119.772 70.7342 134.715 61.8271 141.295C60.6214 142.186 60.3663 143.885 61.2568 145.091C62.1467 146.296 63.8458 146.552 65.0529 145.661C75.3625 138.045 80.4695 122.259 85.4085 106.992C88.1416 98.5444 90.7228 90.5652 93.9617 84.8415C97.2503 79.0186 101.933 76.0178 106.489 76.811C110.917 77.5832 114.198 81.7809 115.264 88.0401C120.66 119.747 93.6584 141.332 72.8784 154.809C71.6207 155.625 71.2625 157.306 72.0784 158.563C72.5982 159.364 73.4694 159.801 74.3583 159.801C74.8641 159.801 75.3764 159.659 75.8327 159.363C90.9915 149.532 101.965 139.931 109.379 130.012Z" fill="#03023E"/>
<path d="M104.788 82.871C103.477 82.146 101.824 82.623 101.1 83.935C97.0046 91.3517 93.0942 100.786 89.478 111.975C89.4665 112.01 89.4556 112.046 89.4458 112.082C84.8036 128.771 77.2902 141.13 67.1132 148.813C65.917 149.716 65.6791 151.418 66.5826 152.614C67.1163 153.321 67.9285 153.693 68.7509 153.693C69.3205 153.693 69.8945 153.515 70.3841 153.145C81.5225 144.736 89.69 131.428 94.6603 113.591C98.1652 102.755 101.93 93.6614 105.852 86.5592C106.576 85.2466 106.1 83.5957 104.788 82.871Z" fill="#03023E"/>
<path d="M98.9235 117.243C98.1646 118.536 98.5968 120.199 99.8894 120.958C100.321 121.211 100.795 121.332 101.261 121.332C102.192 121.332 103.099 120.852 103.604 119.992C107.497 113.364 109.986 105.317 111.002 96.0734C111.165 94.5834 110.09 93.2426 108.6 93.0791C107.107 92.9149 105.77 93.9903 105.606 95.4804C104.661 104.077 102.475 111.196 98.9235 117.243Z" fill="#03023E"/>
<path d="M98.0102 49.7911C98.1452 49.7911 98.2827 49.7813 98.4201 49.7602C99.9895 49.5221 101.58 49.4183 103.157 49.4535C104.673 49.4875 105.897 48.2977 105.93 46.7995C105.963 45.3009 104.774 44.0595 103.276 44.0266C101.388 43.9842 99.4837 44.1091 97.6072 44.393C96.1249 44.6176 95.1058 46.0012 95.33 47.4831C95.5336 48.8279 96.6908 49.7911 98.0102 49.7911Z" fill="#03023E"/>
<path d="M137.911 86.4263C138.133 87.7528 139.282 88.6926 140.584 88.6926C140.733 88.6926 140.884 88.6804 141.036 88.6553C142.514 88.4076 143.512 87.0082 143.265 85.53C139.891 65.3789 128.526 50.4658 112.863 45.638C111.432 45.1984 109.912 45.9997 109.47 47.4324C109.029 48.8651 109.832 50.384 111.264 50.8258C124.922 55.035 134.883 68.3438 137.911 86.4263Z" fill="#03023E"/>
<path d="M56.0409 134.81C56.5739 135.364 57.285 135.642 57.9972 135.642C58.6743 135.642 59.3525 135.39 59.8791 134.883C65.7345 129.248 69.7673 120.253 72.0865 107.592C74.7294 97.2325 77.9704 85.4674 82.995 76.9087C89.7606 65.3859 99.0765 60.4753 108.549 63.4341C118.621 66.5794 128.098 79.3867 126.725 97.778C125.203 118.185 113.076 140.439 97.8887 150.691C96.6467 151.53 96.3193 153.217 97.158 154.46C97.6825 155.236 98.5384 155.655 99.41 155.655C99.9325 155.655 100.461 155.504 100.927 155.19C109 149.74 116.555 141.039 122.201 130.691C127.813 120.405 131.342 108.86 132.138 98.1821C132.852 88.6304 130.988 79.6876 126.75 72.3208C122.729 65.3326 116.84 60.3366 110.168 58.2525C98.2531 54.5297 86.3472 60.4784 78.3138 74.1603C75.9725 78.1484 74.0129 82.7105 72.32 87.4738C68.2362 72.3944 78.0088 57.7347 90.604 52.0829C91.9716 51.4692 92.5826 49.8631 91.9689 48.4955C91.3552 47.1279 89.7484 46.5159 88.3815 47.1306C80.0661 50.8622 73.0901 57.7222 69.2414 65.9518C65.153 74.6943 64.8805 84.2481 68.4554 92.9323C67.0213 111.675 62.8704 124.471 56.1146 130.972C55.035 132.012 55.0018 133.73 56.0409 134.81Z" fill="#03023E"/>
<path d="M144.543 95.9728C144.555 94.474 143.349 93.2489 141.85 93.2363C141.843 93.2363 141.835 93.2363 141.828 93.2363C140.339 93.2363 139.127 94.437 139.114 95.9284C138.88 124.761 123.479 150.269 95.7486 167.753C94.4808 168.553 94.1008 170.229 94.9001 171.497C95.4162 172.316 96.2976 172.764 97.1987 172.764C97.6933 172.764 98.1944 172.629 98.6436 172.345C127.992 153.841 144.292 126.718 144.543 95.9728Z" fill="#03023E"/>
<path d="M59.4869 90.5349C59.4675 90.5345 59.4485 90.5342 59.4292 90.5342C57.9565 90.5342 56.7477 91.7125 56.7168 93.1917C56.6225 97.7015 55.9012 109.232 51.2536 118.872C50.6025 120.223 51.1694 121.845 52.5197 122.496C52.8994 122.679 53.301 122.766 53.6963 122.766C54.7059 122.766 55.6752 122.2 56.1431 121.23C61.0696 111.011 62.0168 99.348 62.1437 93.305C62.1752 91.8064 60.9858 90.5661 59.4869 90.5349Z" fill="#03023E"/>
<path d="M136.115 153.429C145.044 142.822 151.311 129.3 154.237 114.324C157.051 99.9269 156.481 84.9364 152.634 72.1139C146.874 52.9158 134.372 39.5789 117.432 34.5601C101.571 29.8576 87.2029 32.571 74.725 42.6255C64.6671 50.7306 56.102 63.6244 49.9566 79.9129C49.4277 81.3154 50.1354 82.8815 51.5379 83.4107C52.9404 83.9393 54.5061 83.2316 55.0357 81.8294C60.8395 66.4451 68.8259 54.3506 78.1309 46.8524C89.1371 37.9837 101.841 35.5993 115.89 39.7641C131.015 44.2459 142.218 56.2884 147.435 73.6738C154.973 98.7978 148.61 130.157 131.962 149.932C130.996 151.079 131.144 152.791 132.29 153.757C132.8 154.185 133.42 154.394 134.037 154.394C134.81 154.395 135.578 154.067 136.115 153.429Z" fill="#03023E"/>
<path d="M129.716 156.568C128.592 155.577 126.877 155.686 125.886 156.81C123.483 159.536 120.482 162.173 116.965 164.646C115.739 165.508 115.444 167.201 116.306 168.427C116.835 169.179 117.675 169.58 118.529 169.58C119.068 169.58 119.613 169.42 120.088 169.086C123.954 166.368 127.275 163.445 129.959 160.399C130.949 159.274 130.841 157.559 129.716 156.568Z" fill="#03023E"/>
<path d="M89.7423 156.588C88.0205 157.864 85.1035 159.678 81.74 161.567C80.4328 162.3 79.968 163.955 80.7019 165.262C81.1996 166.149 82.1213 166.648 83.0709 166.648C83.5205 166.648 83.9768 166.536 84.3968 166.3C86.0779 165.356 90.2793 162.946 92.9735 160.949C94.1778 160.057 94.4309 158.357 93.5383 157.153C92.6464 155.948 90.9463 155.694 89.7423 156.588Z" fill="#03023E"/>
</g>
<defs>
<clipPath id="clip0_59_1682">
<rect width="205" height="205" fill="white"/>
</clipPath>
</defs>
</svg>
